<svg width="25" height="25" viewBox="0 0 25 25" fill="currentColor" xmlns="http://www.w3.org/2000/svg">
<g clip-path="url(#clip0_1656_14454)">
<path fill-rule="evenodd" clip-rule="evenodd" d="M24.5546 18.4623C24.5506 18.529 24.538 18.5936 24.516 18.657C24.508 18.6803 24.502 18.7036 24.4913 18.727C24.4546 18.8063 24.4086 18.8823 24.344 18.9463L19.344 23.9463C19.2733 24.017 19.1906 24.0716 19.1 24.1096C19.0093 24.147 18.912 24.1663 18.814 24.1663H3.31396C1.79663 24.1663 0.563965 22.9336 0.563965 21.4163V7.91631C0.563965 6.39898 1.79663 5.16631 3.31396 5.16631H9.56396C9.97797 5.16631 10.314 5.50231 10.314 5.91631C10.314 6.33031 9.97797 6.66631 9.56396 6.66631H3.31396C2.6253 6.66631 2.06396 7.22765 2.06396 7.91631V21.4163C2.06396 22.105 2.6253 22.6663 3.31396 22.6663H18.064V18.4163C18.064 18.0023 18.4 17.6663 18.814 17.6663H23.064V7.91631C23.064 7.22765 22.5026 6.66631 21.814 6.66631H15.564C15.15 6.66631 14.814 6.33031 14.814 5.91631C14.814 5.50231 15.15 5.16631 15.564 5.16631H21.814C23.3313 5.16631 24.564 6.39898 24.564 7.91631V18.4163C24.564 18.4323 24.556 18.4463 24.5546 18.4623ZM19.564 19.1663V21.605L22.0026 19.1663H19.564ZM5.31396 11.1663H19.814C20.228 11.1663 20.564 11.5023 20.564 11.9163C20.564 12.3303 20.228 12.6663 19.814 12.6663H5.31396C4.89996 12.6663 4.56396 12.3303 4.56396 11.9163C4.56396 11.5023 4.89996 11.1663 5.31396 11.1663ZM5.31396 19.1663H15.814C16.228 19.1663 16.564 19.5023 16.564 19.9163C16.564 20.3303 16.228 20.6663 15.814 20.6663H5.31396C4.89996 20.6663 4.56396 20.3303 4.56396 19.9163C4.56396 19.5023 4.89996 19.1663 5.31396 19.1663ZM5.31396 15.1663H19.814C20.228 15.1663 20.564 15.5023 20.564 15.9163C20.564 16.3303 20.228 16.6663 19.814 16.6663H5.31396C4.89996 16.6663 4.56396 16.3303 4.56396 15.9163C4.56396 15.5023 4.89996 15.1663 5.31396 15.1663ZM13.314 4.01765V8.41631C13.314 8.83031 12.978 9.16631 12.564 9.16631C12.15 9.16631 11.814 8.83031 11.814 8.41631V4.01765C11.082 3.72031 10.564 3.00365 10.564 2.16631C10.564 1.06298 11.4606 0.166313 12.564 0.166313C13.6666 0.166313 14.564 1.06298 14.564 2.16631C14.564 3.00365 14.046 3.72031 13.314 4.01765ZM12.564 1.66631C12.288 1.66631 12.064 1.89165 12.064 2.16631C12.064 2.44098 12.288 2.66631 12.564 2.66631C12.84 2.66631 13.064 2.44098 13.064 2.16631C13.064 1.89165 12.84 1.66631 12.564 1.66631Z" fill="currentColor"/>
</g>
<defs>
<clipPath id="clip0_1656_14454">
<rect width="24" height="24" fill="white" transform="translate(0.563965 0.166313)"/>
</clipPath>
</defs>
</svg>
